<svg width="245" height="37" viewBox="0 0 245 37" fill="none" xmlns="http://www.w3.org/2000/svg">
<path d="M2.21065 13.9983V10.4206H4.70827C6.49035 10.4206 7.5299 9.17856 7.5299 7.70699C7.5299 6.23542 6.51736 4.99336 4.70827 4.99336H1.0901V13.9983H2.21065ZM4.57326 9.42157H2.21065V5.99241H4.57326C5.63981 5.99241 6.36885 6.69444 6.36885 7.70699C6.36885 8.71954 5.63981 9.42157 4.57326 9.42157ZM12.362 13.9983V5.99241H15.2241V4.99336H8.39278V5.99241H11.2414V13.9983H12.362ZM23.1102 14.1603C25.5403 14.1603 26.4313 12.8237 26.4313 11.5142C26.4313 8.15251 21.0986 9.31357 21.0986 7.28847C21.0986 6.43793 21.8681 5.8574 22.9482 5.8574C23.9337 5.8574 24.8788 6.19492 25.5538 6.93746L26.2288 6.11392C25.4728 5.31738 24.4062 4.85836 23.0292 4.85836C21.2606 4.85836 19.9375 5.8709 19.9375 7.35598C19.9375 10.5691 25.2703 9.28657 25.2703 11.6087C25.2703 12.2972 24.7572 13.1613 23.1507 13.1613C21.8816 13.1613 20.9096 12.5402 20.3155 11.8787L19.654 12.7292C20.3965 13.5663 21.5441 14.1603 23.1102 14.1603ZM29.487 14.1603C30.081 14.1603 30.4456 13.9848 30.7021 13.7418L30.4051 12.9857C30.27 13.1342 30 13.2558 29.7165 13.2558C29.271 13.2558 29.055 12.9047 29.055 12.4187V8.36852H30.3781V7.47748H29.055V5.6954H28.0424V7.47748H26.9624V8.36852H28.0424V12.6347C28.0424 13.6068 28.5285 14.1603 29.487 14.1603ZM34.657 14.1603C36.6416 14.1603 37.8837 12.6212 37.8837 10.7311C37.8837 8.84105 36.6416 7.31547 34.657 7.31547C32.6724 7.31547 31.4304 8.84105 31.4304 10.7311C31.4304 12.6212 32.6724 14.1603 34.657 14.1603ZM34.657 13.2558C33.2664 13.2558 32.4834 12.0677 32.4834 10.7311C32.4834 9.40807 33.2664 8.22002 34.657 8.22002C36.0476 8.22002 36.8171 9.40807 36.8171 10.7311C36.8171 12.0677 36.0476 13.2558 34.657 13.2558ZM42.41 14.1603C43.598 14.1603 44.3001 13.6743 44.7996 13.0262L44.1246 12.4052C43.6925 12.9857 43.139 13.2558 42.464 13.2558C41.0734 13.2558 40.2094 12.1757 40.2094 10.7311C40.2094 9.28657 41.0734 8.22002 42.464 8.22002C43.139 8.22002 43.6925 8.47653 44.1246 9.07056L44.7996 8.44953C44.3001 7.8015 43.598 7.31547 42.41 7.31547C40.4659 7.31547 39.1563 8.80054 39.1563 10.7311C39.1563 12.6752 40.4659 14.1603 42.41 14.1603ZM51.9565 13.9983L49.0539 10.4341L51.943 7.47748H50.6604L47.2313 10.9471V4.99336H46.2187V13.9983H47.2313V12.1352L48.3113 11.0687L50.6604 13.9983H51.9565ZM54.1662 12.2297V9.27307C54.5172 8.70604 55.3137 8.22002 56.1103 8.22002C57.4333 8.22002 58.2164 9.30007 58.2164 10.7446C58.2164 12.1892 57.4333 13.2558 56.1103 13.2558C55.3137 13.2558 54.5172 12.7967 54.1662 12.2297ZM54.1662 13.9983V13.0262C54.6522 13.6878 55.4487 14.1603 56.3668 14.1603C58.0679 14.1603 59.2694 12.8642 59.2694 10.7446C59.2694 8.66554 58.0679 7.31547 56.3668 7.31547C55.4757 7.31547 54.6927 7.74749 54.1662 8.46303V4.99336H53.1536V13.9983H54.1662ZM61.4187 6.54594C61.7967 6.54594 62.1072 6.24892 62.1072 5.8709C62.1072 5.49289 61.7967 5.18237 61.4187 5.18237C61.0541 5.18237 60.7436 5.49289 60.7436 5.8709C60.7436 6.24892 61.0541 6.54594 61.4187 6.54594ZM61.9317 13.9983V7.47748H60.9191V13.9983H61.9317ZM65.5986 14.1603C66.1926 14.1603 66.5571 13.9848 66.8136 13.7418L66.5166 12.9857C66.3816 13.1342 66.1116 13.2558 65.8281 13.2558C65.3826 13.2558 65.1666 12.9047 65.1666 12.4187V8.36852H66.4896V7.47748H65.1666V5.6954H64.154V7.47748H63.074V8.36852H64.154V12.6347C64.154 13.6068 64.64 14.1603 65.5986 14.1603ZM74.3572 14.1603C76.7874 14.1603 77.6784 12.8237 77.6784 11.5142C77.6784 8.15251 72.3456 9.31357 72.3456 7.28847C72.3456 6.43793 73.1152 5.8574 74.1952 5.8574C75.1808 5.8574 76.1258 6.19492 76.8009 6.93746L77.4759 6.11392C76.7198 5.31738 75.6533 4.85836 74.2762 4.85836C72.5076 4.85836 71.1846 5.8709 71.1846 7.35598C71.1846 10.5691 76.5173 9.28657 76.5173 11.6087C76.5173 12.2972 76.0043 13.1613 74.3977 13.1613C73.1287 13.1613 72.1566 12.5402 71.5626 11.8787L70.9011 12.7292C71.6436 13.5663 72.7912 14.1603 74.3572 14.1603ZM82.2543 14.1603C83.3208 14.1603 84.1984 13.8093 84.8464 13.1613L84.3604 12.4997C83.8473 13.0262 83.0913 13.3233 82.3488 13.3233C80.9447 13.3233 80.0807 12.2972 79.9997 11.0687H85.2784V10.8121C85.2784 8.85455 84.1174 7.31547 82.1463 7.31547C80.2832 7.31547 78.9331 8.84105 78.9331 10.7311C78.9331 12.7697 80.3237 14.1603 82.2543 14.1603ZM84.2794 10.3261H79.9997C80.0537 9.32707 80.7422 8.15251 82.1328 8.15251C83.6178 8.15251 84.2659 9.35407 84.2794 10.3261ZM92.6562 13.9983L89.7536 10.4341L92.6427 7.47748H91.3601L87.931 10.9471V4.99336H86.9184V13.9983H87.931V12.1352L89.011 11.0687L91.3601 13.9983H92.6562ZM99.2671 13.9983V7.47748H98.2545V12.2702C97.8765 12.7967 97.1205 13.2558 96.3239 13.2558C95.4464 13.2558 94.8659 12.9182 94.8659 11.7707V7.47748H93.8533V12.0812C93.8533 13.4988 94.5688 14.1603 95.9324 14.1603C96.9045 14.1603 97.755 13.6473 98.2545 13.0802V13.9983H99.2671ZM102.302 13.9983V9.38107C102.599 8.85455 103.449 8.34152 104.07 8.34152C104.232 8.34152 104.354 8.35502 104.475 8.38202V7.34247C103.584 7.34247 102.828 7.842 102.302 8.53053V7.47748H101.289V13.9983H102.302ZM106.245 6.54594C106.623 6.54594 106.934 6.24892 106.934 5.8709C106.934 5.49289 106.623 5.18237 106.245 5.18237C105.88 5.18237 105.57 5.49289 105.57 5.8709C105.57 6.24892 105.88 6.54594 106.245 6.54594ZM106.758 13.9983V7.47748H105.745V13.9983H106.758ZM110.425 14.1603C111.019 14.1603 111.383 13.9848 111.64 13.7418L111.343 12.9857C111.208 13.1342 110.938 13.2558 110.654 13.2558C110.209 13.2558 109.993 12.9047 109.993 12.4187V8.36852H111.316V7.47748H109.993V5.6954H108.98V7.47748H107.9V8.36852H108.98V12.6347C108.98 13.6068 109.466 14.1603 110.425 14.1603ZM117.836 13.9983V9.51608C117.836 7.9365 116.688 7.31547 115.311 7.31547C114.245 7.31547 113.408 7.66649 112.706 8.39552L113.178 9.09756C113.759 8.47653 114.393 8.19302 115.176 8.19302C116.121 8.19302 116.823 8.69254 116.823 9.57008V10.7446C116.297 10.1371 115.554 9.85359 114.663 9.85359C113.556 9.85359 112.382 10.5421 112.382 12.0002C112.382 13.4178 113.556 14.1603 114.663 14.1603C115.541 14.1603 116.283 13.8498 116.823 13.2558V13.9983H117.836ZM115.028 13.4313C114.083 13.4313 113.421 12.8372 113.421 12.0137C113.421 11.1767 114.083 10.5826 115.028 10.5826C115.743 10.5826 116.432 10.8526 116.823 11.3927V12.6212C116.432 13.1613 115.743 13.4313 115.028 13.4313ZM121.931 14.1603C123.619 14.1603 124.497 13.2828 124.497 12.1892C124.497 9.65108 120.46 10.5961 120.46 9.16506C120.46 8.58453 121.013 8.13901 121.904 8.13901C122.741 8.13901 123.457 8.49003 123.848 8.96255L124.321 8.26052C123.794 7.73399 123.011 7.31547 121.904 7.31547C120.352 7.31547 119.474 8.17951 119.474 9.19206C119.474 11.6087 123.511 10.6366 123.511 12.2162C123.511 12.8642 122.971 13.3368 121.972 13.3368C121.081 13.3368 120.257 12.9047 119.825 12.4052L119.299 13.1342C119.96 13.8363 120.865 14.1603 121.931 14.1603ZM132.741 13.9983C135.535 13.9983 137.358 12.0677 137.358 9.50258C137.358 6.95096 135.535 4.99336 132.741 4.99336H129.663V13.9983H132.741ZM132.741 12.9992H130.783V5.99241H132.741C134.968 5.99241 136.197 7.55848 136.197 9.50258C136.197 11.4332 134.928 12.9992 132.741 12.9992ZM139.575 6.54594C139.953 6.54594 140.263 6.24892 140.263 5.8709C140.263 5.49289 139.953 5.18237 139.575 5.18237C139.21 5.18237 138.9 5.49289 138.9 5.8709C138.9 6.24892 139.21 6.54594 139.575 6.54594ZM140.088 13.9983V7.47748H139.075V13.9983H140.088ZM144.727 16.6444C146.32 16.6444 147.832 15.9694 147.832 13.8093V7.47748H146.819V8.46303C146.293 7.74749 145.51 7.31547 144.632 7.31547C142.918 7.31547 141.73 8.61154 141.73 10.7041C141.73 12.8102 142.931 14.0793 144.632 14.0793C145.55 14.0793 146.347 13.5798 146.819 12.9182V13.8498C146.819 15.2809 145.807 15.8074 144.727 15.8074C143.795 15.8074 143.147 15.5644 142.607 14.9163L142.094 15.6724C142.864 16.4284 143.62 16.6444 144.727 16.6444ZM144.875 13.1883C143.566 13.1883 142.783 12.1352 142.783 10.7041C142.783 9.25957 143.566 8.22002 144.875 8.22002C145.685 8.22002 146.468 8.70604 146.819 9.27307V12.1217C146.468 12.6887 145.685 13.1883 144.875 13.1883ZM150.359 6.54594C150.737 6.54594 151.048 6.24892 151.048 5.8709C151.048 5.49289 150.737 5.18237 150.359 5.18237C149.995 5.18237 149.684 5.49289 149.684 5.8709C149.684 6.24892 149.995 6.54594 150.359 6.54594ZM150.872 13.9983V7.47748H149.86V13.9983H150.872ZM154.539 14.1603C155.133 14.1603 155.498 13.9848 155.754 13.7418L155.457 12.9857C155.322 13.1342 155.052 13.2558 154.769 13.2558C154.323 13.2558 154.107 12.9047 154.107 12.4187V8.36852H155.43V7.47748H154.107V5.6954H153.095V7.47748H152.015V8.36852H153.095V12.6347C153.095 13.6068 153.581 14.1603 154.539 14.1603ZM161.95 13.9983V9.51608C161.95 7.9365 160.803 7.31547 159.426 7.31547C158.359 7.31547 157.522 7.66649 156.82 8.39552L157.293 9.09756C157.873 8.47653 158.508 8.19302 159.291 8.19302C160.236 8.19302 160.938 8.69254 160.938 9.57008V10.7446C160.411 10.1371 159.669 9.85359 158.778 9.85359C157.671 9.85359 156.496 10.5421 156.496 12.0002C156.496 13.4178 157.671 14.1603 158.778 14.1603C159.655 14.1603 160.398 13.8498 160.938 13.2558V13.9983H161.95ZM159.142 13.4313C158.197 13.4313 157.536 12.8372 157.536 12.0137C157.536 11.1767 158.197 10.5826 159.142 10.5826C159.858 10.5826 160.546 10.8526 160.938 11.3927V12.6212C160.546 13.1613 159.858 13.4313 159.142 13.4313ZM164.993 13.9983V4.99336H163.98V13.9983H164.993ZM25.4905 30.2297V27.2731C25.8415 26.706 26.6381 26.22 27.4346 26.22C28.7577 26.22 29.5407 27.3001 29.5407 28.7446C29.5407 30.1892 28.7577 31.2558 27.4346 31.2558C26.6381 31.2558 25.8415 30.7967 25.4905 30.2297ZM25.4905 31.9983V31.0262C25.9765 31.6878 26.7731 32.1603 27.6911 32.1603C29.3922 32.1603 30.5937 30.8642 30.5937 28.7446C30.5937 26.6655 29.3922 25.3155 27.6911 25.3155C26.8001 25.3155 26.017 25.7475 25.4905 26.463V22.9934H24.478V31.9983H25.4905ZM35.1866 32.1603C36.2532 32.1603 37.1307 31.8093 37.7787 31.1613L37.2927 30.4997C36.7797 31.0262 36.0236 31.3233 35.2811 31.3233C33.877 31.3233 33.013 30.2972 32.932 29.0687H38.2107V28.8121C38.2107 26.8545 37.0497 25.3155 35.0786 25.3155C33.2155 25.3155 31.8654 26.841 31.8654 28.7311C31.8654 30.7697 33.256 32.1603 35.1866 32.1603ZM37.2117 28.3261H32.932C32.986 27.3271 33.6745 26.1525 35.0651 26.1525C36.5502 26.1525 37.1982 27.3541 37.2117 28.3261ZM40.8633 31.9983V27.3811C41.1603 26.8545 42.0109 26.3415 42.6319 26.3415C42.7939 26.3415 42.9154 26.355 43.0369 26.382V25.3425C42.1459 25.3425 41.3898 25.842 40.8633 26.5305V25.4775H39.8508V31.9983H40.8633ZM44.8065 24.5459C45.1846 24.5459 45.4951 24.2489 45.4951 23.8709C45.4951 23.4929 45.1846 23.1824 44.8065 23.1824C44.442 23.1824 44.1315 23.4929 44.1315 23.8709C44.1315 24.2489 44.442 24.5459 44.8065 24.5459ZM45.3196 31.9983V25.4775H44.307V31.9983H45.3196ZM51.9971 31.9983V31.1207H48.3249L51.9431 26.247V25.4775H47.0289V26.3685H50.62L47.0289 31.2153V31.9983H51.9971ZM54.2069 24.5459C54.5849 24.5459 54.8954 24.2489 54.8954 23.8709C54.8954 23.4929 54.5849 23.1824 54.2069 23.1824C53.8424 23.1824 53.5319 23.4929 53.5319 23.8709C53.5319 24.2489 53.8424 24.5459 54.2069 24.5459ZM54.7199 31.9983V25.4775H53.7074V31.9983H54.7199ZM62.1535 31.9983V27.4216C62.1535 26.004 61.438 25.3155 60.0744 25.3155C59.1024 25.3155 58.2113 25.8825 57.7523 26.4225V25.4775H56.7397V31.9983H57.7523V27.2326C58.1303 26.706 58.8863 26.22 59.6829 26.22C60.5604 26.22 61.141 26.5845 61.141 27.7321V31.9983H62.1535ZM73.394 31.9983V22.9934H72.3815V26.463C71.855 25.7475 71.0584 25.3155 70.1809 25.3155C68.4663 25.3155 67.2783 26.6655 67.2783 28.7446C67.2783 30.8642 68.4798 32.1603 70.1809 32.1603C71.0989 32.1603 71.8955 31.6878 72.3815 31.0262V31.9983H73.394ZM70.4239 31.2558C69.1143 31.2558 68.3313 30.1892 68.3313 28.7446C68.3313 27.3001 69.1143 26.22 70.4239 26.22C71.2339 26.22 72.017 26.706 72.3815 27.2731V30.2297C72.017 30.7967 71.2339 31.2558 70.4239 31.2558ZM80.5115 31.9983V27.5161C80.5115 25.9365 79.364 25.3155 77.9869 25.3155C76.9204 25.3155 76.0833 25.6665 75.3813 26.3955L75.8538 27.0976C76.4343 26.4765 77.0689 26.193 77.8519 26.193C78.7969 26.193 79.499 26.6925 79.499 27.5701V28.7446C78.9725 28.1371 78.2299 27.8536 77.3389 27.8536C76.2318 27.8536 75.0573 28.5421 75.0573 30.0002C75.0573 31.4178 76.2318 32.1603 77.3389 32.1603C78.2164 32.1603 78.9589 31.8498 79.499 31.2558V31.9983H80.5115ZM77.7034 31.4313C76.7583 31.4313 76.0968 30.8372 76.0968 30.0137C76.0968 29.1767 76.7583 28.5826 77.7034 28.5826C78.4189 28.5826 79.1075 28.8526 79.499 29.3927V30.6212C79.1075 31.1613 78.4189 31.4313 77.7034 31.4313ZM87.955 31.9983V27.4216C87.955 26.004 87.2395 25.3155 85.8759 25.3155C84.9039 25.3155 84.0128 25.8825 83.5538 26.4225V25.4775H82.5413V31.9983H83.5538V27.2326C83.9318 26.706 84.6879 26.22 85.4844 26.22C86.3619 26.22 86.9425 26.5845 86.9425 27.7321V31.9983H87.955ZM99.1956 31.9983V22.9934H98.183V26.463C97.6565 25.7475 96.86 25.3155 95.9824 25.3155C94.2678 25.3155 93.0798 26.6655 93.0798 28.7446C93.0798 30.8642 94.2813 32.1603 95.9824 32.1603C96.9005 32.1603 97.697 31.6878 98.183 31.0262V31.9983H99.1956ZM96.2254 31.2558C94.9159 31.2558 94.1328 30.1892 94.1328 28.7446C94.1328 27.3001 94.9159 26.22 96.2254 26.22C97.0355 26.22 97.8185 26.706 98.183 27.2731V30.2297C97.8185 30.7967 97.0355 31.2558 96.2254 31.2558ZM101.723 24.5459C102.101 24.5459 102.411 24.2489 102.411 23.8709C102.411 23.4929 102.101 23.1824 101.723 23.1824C101.358 23.1824 101.048 23.4929 101.048 23.8709C101.048 24.2489 101.358 24.5459 101.723 24.5459ZM102.236 31.9983V25.4775H101.223V31.9983H102.236ZM109.345 31.9983V27.5161C109.345 25.9365 108.198 25.3155 106.821 25.3155C105.754 25.3155 104.917 25.6665 104.215 26.3955L104.688 27.0976C105.268 26.4765 105.903 26.193 106.686 26.193C107.631 26.193 108.333 26.6925 108.333 27.5701V28.7446C107.806 28.1371 107.064 27.8536 106.173 27.8536C105.066 27.8536 103.891 28.5421 103.891 30.0002C103.891 31.4178 105.066 32.1603 106.173 32.1603C107.05 32.1603 107.793 31.8498 108.333 31.2558V31.9983H109.345ZM106.537 31.4313C105.592 31.4313 104.931 30.8372 104.931 30.0137C104.931 29.1767 105.592 28.5826 106.537 28.5826C107.253 28.5826 107.941 28.8526 108.333 29.3927V30.6212C107.941 31.1613 107.253 31.4313 106.537 31.4313ZM118.031 31.9983L120.11 25.4775H119.057L117.464 30.6752L115.749 25.4775H114.885L113.171 30.6752L111.578 25.4775H110.525L112.604 31.9983H113.616L115.317 26.76L117.018 31.9983H118.031ZM126.379 31.9983V27.5161C126.379 25.9365 125.232 25.3155 123.855 25.3155C122.788 25.3155 121.951 25.6665 121.249 26.3955L121.722 27.0976C122.302 26.4765 122.937 26.193 123.72 26.193C124.665 26.193 125.367 26.6925 125.367 27.5701V28.7446C124.84 28.1371 124.098 27.8536 123.207 27.8536C122.1 27.8536 120.925 28.5421 120.925 30.0002C120.925 31.4178 122.1 32.1603 123.207 32.1603C124.084 32.1603 124.827 31.8498 125.367 31.2558V31.9983H126.379ZM123.571 31.4313C122.626 31.4313 121.965 30.8372 121.965 30.0137C121.965 29.1767 122.626 28.5826 123.571 28.5826C124.287 28.5826 124.975 28.8526 125.367 29.3927V30.6212C124.975 31.1613 124.287 31.4313 123.571 31.4313ZM130.475 32.1603C132.162 32.1603 133.04 31.2828 133.04 30.1892C133.04 27.6511 129.003 28.5961 129.003 27.1651C129.003 26.5845 129.557 26.139 130.448 26.139C131.285 26.139 132 26.49 132.392 26.9626L132.864 26.2605C132.338 25.734 131.555 25.3155 130.448 25.3155C128.895 25.3155 128.018 26.1795 128.018 27.1921C128.018 29.6087 132.054 28.6366 132.054 30.2162C132.054 30.8642 131.514 31.3368 130.515 31.3368C129.624 31.3368 128.801 30.9047 128.369 30.4052L127.842 31.1342C128.504 31.8363 129.408 32.1603 130.475 32.1603ZM135.184 24.5459C135.562 24.5459 135.873 24.2489 135.873 23.8709C135.873 23.4929 135.562 23.1824 135.184 23.1824C134.82 23.1824 134.509 23.4929 134.509 23.8709C134.509 24.2489 134.82 24.5459 135.184 24.5459ZM135.697 31.9983V25.4775H134.685V31.9983H135.697ZM144.046 32.1603C146.031 32.1603 147.273 30.6212 147.273 28.7311C147.273 26.841 146.031 25.3155 144.046 25.3155C142.062 25.3155 140.82 26.841 140.82 28.7311C140.82 30.6212 142.062 32.1603 144.046 32.1603ZM144.046 31.2558C142.656 31.2558 141.873 30.0677 141.873 28.7311C141.873 27.4081 142.656 26.22 144.046 26.22C145.437 26.22 146.207 27.4081 146.207 28.7311C146.207 30.0677 145.437 31.2558 144.046 31.2558ZM149.936 31.9983V22.9934H148.924V31.9983H149.936ZM154.899 32.1603C155.966 32.1603 156.843 31.8093 157.491 31.1613L157.005 30.4997C156.492 31.0262 155.736 31.3233 154.994 31.3233C153.59 31.3233 152.726 30.2972 152.645 29.0687H157.923V28.8121C157.923 26.8545 156.762 25.3155 154.791 25.3155C152.928 25.3155 151.578 26.841 151.578 28.7311C151.578 30.7697 152.969 32.1603 154.899 32.1603ZM156.924 28.3261H152.645C152.699 27.3271 153.387 26.1525 154.778 26.1525C156.263 26.1525 156.911 27.3541 156.924 28.3261ZM164.991 31.9983V27.3946C164.991 25.977 164.275 25.3155 162.912 25.3155C161.926 25.3155 161.035 25.8825 160.576 26.4225V22.9934H159.563V31.9983H160.576V27.2326C160.968 26.706 161.724 26.22 162.507 26.22C163.384 26.22 163.978 26.5575 163.978 27.7051V31.9983H164.991Z" fill="#949494"/>
<path fill-rule="evenodd" clip-rule="evenodd" d="M175 2.4975H175.751V35.4991H175V2.4975Z" fill="#949494"/>
<path d="M188.762 10.1243C190.883 10.1243 192.427 8.61223 192.427 6.50163C192.427 4.39102 190.883 2.87895 188.762 2.87895C186.652 2.87895 185.108 4.39102 185.108 6.50163C185.108 8.61223 186.652 10.1243 188.762 10.1243ZM188.762 8.80123C187.471 8.80123 186.641 7.80369 186.641 6.50163C186.641 5.18906 187.471 4.20202 188.762 4.20202C190.054 4.20202 190.894 5.18906 190.894 6.50163C190.894 7.80369 190.054 8.80123 188.762 8.80123ZM196.335 9.99829V4.30702H198.373V2.99446H192.786V4.30702H194.834V9.99829H196.335ZM202.39 10.1243C204.511 10.1243 206.055 8.61223 206.055 6.50163C206.055 4.39102 204.511 2.87895 202.39 2.87895C200.28 2.87895 198.736 4.39102 198.736 6.50163C198.736 8.61223 200.28 10.1243 202.39 10.1243ZM202.39 8.80123C201.099 8.80123 200.269 7.80369 200.269 6.50163C200.269 5.18906 201.099 4.20202 202.39 4.20202C203.682 4.20202 204.522 5.18906 204.522 6.50163C204.522 7.80369 203.682 8.80123 202.39 8.80123ZM212.772 9.99829L211.196 7.33116C211.953 7.15266 212.73 6.49112 212.73 5.25207C212.73 3.95 211.837 2.99446 210.377 2.99446H207.101V9.99829H208.592V7.50967H209.684L211.06 9.99829H212.772ZM210.157 6.19711H208.592V4.30702H210.157C210.755 4.30702 211.207 4.66404 211.207 5.25207C211.207 5.84009 210.755 6.19711 210.157 6.19711ZM215.34 9.99829V2.99446H213.849V9.99829H215.34ZM219.849 9.99829V4.30702H221.886V2.99446H216.3V4.30702H218.347V9.99829H219.849ZM228.696 9.99829L225.998 2.99446H224.129L221.419 9.99829H223.121L223.562 8.81173H226.565L226.995 9.99829H228.696ZM226.155 7.49917H223.971L225.063 4.48553L226.155 7.49917ZM231.76 10.1243C233.65 10.1243 234.564 9.15825 234.564 7.87719C234.564 5.26257 230.542 6.0081 230.542 4.89505C230.542 4.47503 230.899 4.19152 231.539 4.19152C232.253 4.19152 233.009 4.43303 233.576 4.95805L234.406 3.866C233.713 3.22547 232.789 2.88945 231.676 2.88945C230.027 2.88945 229.019 3.8555 229.019 5.02105C229.019 7.65668 233.051 6.80614 233.051 8.0452C233.051 8.44422 232.652 8.82224 231.833 8.82224C230.867 8.82224 230.101 8.39171 229.607 7.87719L228.799 9.01124C229.45 9.67278 230.416 10.1243 231.76 10.1243ZM186.694 22.1243C188.132 22.1243 189.161 21.3578 189.161 19.6987V14.9945H187.67V19.6777C187.67 20.3602 187.24 20.8012 186.578 20.8012C186.095 20.8012 185.738 20.5597 185.465 20.2972L184.814 21.4418C185.318 21.9353 185.99 22.1243 186.694 22.1243ZM196.733 21.9983L194.035 14.9945H192.166L189.457 21.9983H191.158L191.599 20.8117H194.602L195.032 21.9983H196.733ZM194.192 19.4992H192.008L193.1 16.4855L194.192 19.4992ZM199.797 22.1243C201.687 22.1243 202.601 21.1583 202.601 19.8772C202.601 17.2626 198.579 18.0081 198.579 16.895C198.579 16.475 198.936 16.1915 199.576 16.1915C200.29 16.1915 201.047 16.433 201.614 16.9581L202.443 15.866C201.75 15.2255 200.826 14.8895 199.713 14.8895C198.064 14.8895 197.056 15.8555 197.056 17.0211C197.056 19.6567 201.089 18.8061 201.089 20.0452C201.089 20.4442 200.69 20.8222 199.87 20.8222C198.904 20.8222 198.138 20.3917 197.644 19.8772L196.836 21.0112C197.487 21.6728 198.453 22.1243 199.797 22.1243ZM210.033 21.9983L207.335 14.9945H205.466L202.756 21.9983H204.458L204.899 20.8117H207.902L208.332 21.9983H210.033ZM207.492 19.4992H205.308L206.4 16.4855L207.492 19.4992ZM191.44 33.9983L188.468 30.2811L191.251 26.9945H189.413L186.935 30.1236V26.9945H185.444V33.9983H186.935V31.8457L187.481 31.1947L189.602 33.9983H191.44ZM197.076 33.9983V32.6857H193.611V31.1002H197.002V29.7876H193.611V28.307H197.076V26.9945H192.12V33.9983H197.076ZM201.402 34.1243C203.534 34.1243 204.563 32.9377 204.563 31.1947V26.9945H203.04V31.1527C203.04 32.1292 202.484 32.8012 201.402 32.8012C200.321 32.8012 199.754 32.1292 199.754 31.1527V26.9945H198.241V31.2052C198.241 32.9272 199.271 34.1243 201.402 34.1243ZM212.125 33.9983L209.427 26.9945H207.557L204.848 33.9983H206.549L206.99 32.8117H209.994L210.424 33.9983H212.125ZM209.584 31.4992H207.4L208.492 28.4855L209.584 31.4992ZM219.041 33.9983V26.9945H217.55V31.3942L214.305 26.9945H212.772V33.9983H214.263V29.4306L217.602 33.9983H219.041ZM223.813 34.1348C225.084 34.1348 226.082 33.6098 226.796 32.8117V30.1236H223.456V31.4257H225.304V32.2657C225.021 32.5282 224.433 32.8012 223.813 32.8012C222.543 32.8012 221.619 31.8247 221.619 30.5016C221.619 29.1786 222.543 28.202 223.813 28.202C224.559 28.202 225.157 28.622 225.472 29.1156L226.712 28.4435C226.187 27.614 225.273 26.879 223.813 26.879C221.766 26.879 220.086 28.286 220.086 30.5016C220.086 32.7067 221.766 34.1348 223.813 34.1348ZM234.439 33.9983L231.74 26.9945H229.871L227.162 33.9983H228.863L229.304 32.8117H232.307L232.738 33.9983H234.439ZM231.898 31.4992H229.714L230.806 28.4855L231.898 31.4992ZM241.354 33.9983V26.9945H239.863V31.3942L236.619 26.9945H235.086V33.9983H236.577V29.4306L239.916 33.9983H241.354Z" fill="#949494"/>
</svg>
